<?xml version="1.0" encoding="UTF-8" standalone="no"?>
<!DOCTYPE svg PUBLIC "-//W3C//DTD SVG 1.1//EN" "http://www.w3.org/Graphics/SVG/1.1/DTD/svg11.dtd">
<svg xmlns="http://www.w3.org/2000/svg" version="1.1" viewBox="0.00 0.00 1267.00 436.00">
<path fill="#52887b" d="
  M 953.23 204.31
  C 957.62 200.98 959.29 195.72 959.30 190.37
  Q 959.37 139.93 959.25 89.52
  C 959.23 77.49 959.36 68.71 946.81 65.64
  A 0.35 0.35 0.0 0 1 946.82 64.95
  Q 955.43 63.11 963.94 60.78
  C 969.08 59.37 975.56 56.83 981.46 54.99
  Q 982.10 54.79 982.10 55.47
  Q 982.18 121.13 982.03 186.74
  C 982.02 194.22 982.66 200.90 989.53 205.24
  C 990.65 205.94 992.40 206.50 993.83 207.21
  Q 994.54 207.56 993.74 207.56
  L 947.73 207.51
  Q 946.70 207.51 947.63 207.06
  C 949.54 206.13 951.70 205.46 953.23 204.31
  Z"
/>
<path fill="#52887b" d="
  M 498.47 71.13
  C 497.58 70.65 495.67 70.03 494.40 69.27
  A 0.27 0.26 64.4 0 1 494.57 68.78
  C 506.14 70.46 516.32 74.93 527.58 67.91
  Q 528.14 67.56 528.10 68.21
  Q 526.73 93.03 531.11 117.52
  A 0.41 0.41 0.0 0 1 530.32 117.74
  Q 524.38 101.82 515.53 87.76
  Q 508.50 76.58 498.47 71.13
  Z"
/>
<path fill="#52887b" d="
  M 481.36 68.86
  C 466.49 69.43 461.46 84.08 467.18 96.22
  Q 470.68 103.65 477.02 109.25
  C 488.12 119.03 500.58 126.86 511.78 136.45
  C 525.60 148.26 537.14 166.66 531.34 185.48
  Q 526.30 201.84 508.22 206.73
  Q 505.53 207.46 497.36 208.57
  Q 496.26 208.72 495.53 208.58
  A 0.13 0.13 0.0 0 1 495.54 208.32
  C 516.38 205.10 515.15 182.88 504.33 170.41
  C 494.79 159.42 482.64 151.08 471.10 142.38
  C 459.62 133.72 448.22 121.61 445.60 107.51
  C 441.11 83.35 457.93 69.02 480.77 68.24
  Q 481.17 68.23 481.44 68.32
  A 0.28 0.28 0.0 0 1 481.36 68.86
  Z"
/>
<path fill="#52887b" d="
  M 1137.67 200.47
  C 1143.02 204.55 1150.41 201.75 1155.72 197.97
  Q 1155.72 197.96 1155.73 197.97
  Q 1155.83 198.02 1155.95 198.11
  A 0.10 0.09 39.6 0 1 1155.97 198.26
  Q 1147.58 206.44 1135.25 207.98
  C 1115.10 210.49 1107.35 197.86 1107.68 179.75
  Q 1108.36 142.12 1108.23 130.27
  Q 1108.12 119.47 1098.81 113.68
  C 1098.19 113.30 1096.84 113.06 1096.10 112.46
  Q 1095.55 112.03 1096.25 111.98
  C 1114.31 110.74 1124.86 95.63 1130.65 80.39
  A 0.26 0.26 0.0 0 1 1131.16 80.48
  Q 1131.10 93.41 1131.20 106.44
  C 1131.23 110.50 1131.99 112.10 1136.24 112.20
  Q 1145.14 112.41 1154.10 111.98
  A 0.17 0.16 34.8 0 1 1154.16 112.30
  C 1149.90 113.60 1145.01 114.90 1141.49 117.12
  Q 1131.87 123.19 1131.28 134.75
  Q 1130.81 143.93 1131.24 178.25
  C 1131.34 185.98 1131.50 195.77 1137.67 200.47
  Z"
/>
<path fill="#52887b" d="
  M 1204.26 88.63
  C 1178.12 92.84 1192.77 122.30 1196.82 137.24
  C 1203.97 163.61 1184.68 176.61 1166.38 188.41
  A 0.17 0.17 0.0 0 1 1166.16 188.15
  C 1185.49 166.08 1167.49 143.80 1167.53 119.53
  C 1167.56 97.52 1182.95 89.96 1202.22 88.13
  Q 1203.57 88.00 1204.30 88.34
  Q 1204.75 88.55 1204.26 88.63
  Z"
/>
<path fill="#dbaf80" d="
  M 243.09 309.89
  A 0.62 0.62 0.0 0 0 243.52 311.00
  L 251.76 310.37
  A 0.63 0.62 -1.3 0 1 252.44 311.01
  L 252.28 319.22
  A 0.97 0.96 -9.0 0 1 251.62 320.12
  Q 249.03 320.99 246.43 321.80
  A 0.58 0.58 0.0 0 1 246.13 321.80
  L 241.14 320.49
  A 0.94 0.92 -68.4 0 0 240.08 320.96
  L 238.96 323.10
  A 2.35 2.33 16.9 0 1 236.62 324.34
  C 230.29 323.64 224.65 324.67 224.82 332.52
  A 1.26 1.26 0.0 0 1 222.84 333.58
  Q 219.02 330.90 214.09 330.01
  C 210.47 329.35 207.88 331.36 205.74 333.95
  A 1.08 1.07 58.8 0 0 205.52 334.86
  L 206.74 340.31
  Q 206.90 340.99 206.20 341.01
  L 205.43 341.03
  Q 204.81 341.05 204.82 340.43
  L 204.95 335.71
  A 0.80 0.79 3.5 0 0 204.23 334.90
  L 192.03 333.79
  A 1.86 1.86 0.0 0 0 190.93 334.04
  Q 185.92 337.01 181.07 340.05
  C 175.10 343.79 175.33 336.03 174.17 332.57
  A 1.03 1.00 0.2 0 0 173.52 331.93
  Q 168.95 330.53 165.35 327.59
  Q 163.17 325.82 161.28 325.15
  C 157.51 323.83 154.22 322.65 150.14 322.55
  Q 143.36 322.38 136.85 322.80
  A 0.80 0.80 0.0 0 1 136.08 321.65
  L 138.49 316.64
  A 0.75 0.75 0.0 0 0 137.77 315.56
  L 132.62 315.86
  A 0.96 0.96 0.0 0 1 131.96 314.16
  L 135.32 311.45
  Q 135.80 311.05 135.65 310.45
  L 134.36 305.45
  A 0.61 0.61 0.0 0 0 133.42 305.11
  Q 129.63 307.86 126.77 308.01
  Q 120.31 308.37 104.63 307.69
  Q 104.11 307.67 103.91 307.18
  C 102.73 304.34 101.99 301.34 99.31 299.62
  Q 96.13 297.59 92.43 296.72
  A 1.29 1.26 -53.4 0 0 91.50 296.87
  C 89.68 297.95 84.47 300.98 87.40 303.36
  Q 89.91 305.41 92.17 307.74
  Q 92.60 308.18 91.99 308.28
  C 87.50 309.08 82.13 310.62 77.65 309.57
  Q 71.44 308.10 65.19 307.08
  Q 64.67 307.00 64.74 306.48
  Q 65.18 303.34 67.67 301.54
  A 1.52 1.49 -58.2 0 1 68.77 301.27
  L 72.77 301.85
  A 0.99 0.99 0.0 0 0 73.78 300.39
  C 72.44 297.97 70.85 296.45 67.87 296.16
  Q 55.28 294.97 42.67 294.46
  Q 42.16 294.44 42.24 293.94
  Q 43.00 289.33 46.49 287.04
  Q 52.57 283.04 58.65 279.46
  A 0.84 0.83 -33.5 0 0 58.90 278.26
  L 56.09 274.43
  Q 55.72 273.92 55.92 273.33
  L 57.67 268.33
  A 1.56 1.55 -75.9 0 1 59.38 267.30
  L 70.55 268.96
  Q 71.13 269.04 71.21 268.46
  L 74.12 246.45
  Q 74.23 245.57 75.01 245.13
  L 90.07 236.63
  A 1.27 1.26 -7.7 0 0 90.70 235.81
  C 91.79 231.52 91.12 228.56 87.74 225.44
  Q 83.16 221.22 78.81 216.80
  A 1.13 1.10 23.7 0 1 78.48 215.99
  L 78.51 207.77
  A 1.90 1.80 -62.0 0 0 78.24 206.80
  L 71.12 195.21
  A 1.35 1.35 0.0 0 1 72.11 193.16
  L 80.66 192.10
  A 0.56 0.56 0.0 0 1 81.29 192.67
  C 81.19 196.82 78.99 202.00 83.26 205.09
  A 2.11 2.10 -56.7 0 0 86.31 204.45
  Q 89.81 198.50 96.74 198.08
  Q 97.34 198.04 97.64 197.52
  L 98.79 195.55
  Q 98.99 195.21 99.39 195.25
  L 108.41 196.28
  A 1.64 1.63 -1.6 0 1 109.84 197.62
  L 110.60 202.02
  A 0.76 0.76 0.0 0 0 111.27 202.64
  L 130.45 204.59
  Q 130.87 204.64 131.04 205.03
  Q 134.88 214.07 144.41 214.92
  C 148.64 215.29 151.65 211.26 152.85 207.72
  Q 153.03 207.16 153.50 207.52
  C 155.64 209.13 156.46 212.00 158.62 213.27
  A 0.64 0.63 -71.2 0 0 159.57 212.80
  L 161.93 193.06
  A 1.28 1.28 0.0 0 0 160.83 191.64
  L 157.48 191.18
  Q 156.84 191.09 156.57 190.50
  L 154.87 186.76
  A 2.64 2.64 0.0 0 0 153.21 185.32
  L 141.36 181.87
  Q 140.86 181.73 140.55 181.30
  C 137.85 177.43 142.25 175.86 144.71 174.58
  A 1.37 1.36 48.0 0 0 144.83 172.23
  L 140.84 169.59
  A 0.61 0.61 0.0 0 1 141.30 168.49
  Q 146.19 169.50 150.30 172.36
  A 1.59 1.58 37.7 0 0 152.41 172.10
  L 158.29 165.27
  Q 158.67 164.83 158.47 164.28
  C 157.23 160.94 152.38 162.31 153.92 156.73
  C 154.54 154.48 155.11 149.84 158.00 149.68
  Q 166.11 149.23 170.61 146.36
  Q 172.65 145.06 174.01 140.89
  Q 174.16 140.43 173.74 140.21
  L 170.35 138.42
  A 0.90 0.90 0.0 0 1 170.77 136.73
  C 176.92 136.71 179.63 137.72 183.88 132.35
  Q 184.24 131.89 184.02 131.35
  L 182.92 128.66
  Q 182.69 128.11 183.09 127.66
  Q 185.22 125.20 187.80 127.49
  A 0.84 0.84 0.0 0 0 188.75 127.59
  Q 191.24 126.22 193.48 123.75
  Q 194.34 122.80 195.88 123.11
  Q 199.79 123.90 203.71 124.61
  A 1.04 1.03 -62.1 0 0 204.61 124.33
  L 207.73 121.27
  A 1.01 1.00 23.5 0 1 208.45 120.99
  L 215.63 121.09
  Q 217.37 121.12 217.36 119.37
  L 217.28 108.85
  Q 217.28 108.25 216.72 108.03
  L 214.45 107.17
  A 2.39 2.39 0.0 0 1 213.03 105.67
  L 211.53 100.90
  A 0.87 0.87 0.0 0 0 210.71 100.29
  L 202.98 100.17
  A 0.62 0.62 0.0 0 1 202.37 99.49
  C 203.07 92.38 203.75 89.77 211.83 90.46
  A 0.66 0.66 0.0 0 1 212.42 91.01
  L 213.31 96.54
  Q 213.66 98.71 215.84 98.47
  L 224.18 97.54
  A 1.58 1.57 88.9 0 0 225.58 96.08
  L 225.93 91.01
  A 0.78 0.77 -4.6 0 1 226.53 90.31
  Q 231.07 89.33 235.67 90.24
  A 0.73 0.73 0.0 0 1 236.19 90.64
  L 240.02 98.91
  Q 240.29 99.49 240.92 99.62
  L 244.90 100.40
  A 1.49 1.47 -88.9 0 1 246.07 101.63
  L 247.63 112.07
  A 1.85 1.84 8.5 0 0 248.65 113.44
  Q 253.59 115.79 258.78 118.46
  Q 260.12 119.15 263.74 118.26
  Q 265.43 117.84 268.59 119.41
  Q 268.99 119.61 269.02 120.05
  L 269.89 130.65
  A 1.66 1.66 0.0 0 0 270.92 132.04
  L 275.43 133.87
  A 1.00 1.00 0.0 0 1 275.19 135.78
  L 272.17 136.18
  Q 271.59 136.26 271.18 136.69
  L 266.63 141.49
  Q 266.20 141.94 266.31 142.55
  L 267.15 147.40
  Q 267.24 147.95 266.86 148.35
  Q 264.40 150.87 260.34 155.81
  C 258.77 157.72 258.03 159.27 258.98 161.72
  C 260.16 164.76 260.80 167.22 264.78 166.98
  A 0.83 0.83 0.0 0 1 265.56 167.42
  L 265.98 168.21
  A 0.56 0.56 0.0 0 1 265.55 169.03
  L 262.61 169.41
  A 0.74 0.74 0.0 0 0 261.97 170.14
  L 262.00 178.35
  A 1.49 1.49 0.0 0 0 262.77 179.64
  L 269.82 183.54
  A 2.43 2.43 0.0 0 1 271.07 185.87
  L 270.66 190.91
  A 1.22 1.22 0.0 0 0 271.93 192.23
  C 278.37 191.92 286.04 193.19 291.23 197.32
  C 295.55 200.74 299.68 205.85 306.02 203.76
  Q 315.01 200.80 323.96 197.67
  Q 327.01 196.61 330.21 196.44
  A 0.76 0.75 -11.2 0 1 330.95 196.93
  C 332.41 200.98 335.33 205.58 335.39 209.60
  Q 335.46 214.46 333.07 218.90
  Q 332.80 219.40 332.25 219.55
  L 324.72 221.60
  A 0.90 0.90 0.0 0 0 324.06 222.41
  Q 323.93 224.92 324.96 227.24
  A 1.87 1.87 0.0 0 1 324.31 229.54
  L 319.46 232.90
  A 1.43 1.43 0.0 0 0 318.96 234.66
  L 322.50 242.71
  A 1.07 1.06 -25.0 0 1 321.99 244.10
  Q 317.31 246.35 314.76 250.83
  Q 314.49 251.30 313.95 251.38
  Q 307.01 252.38 302.34 257.45
  C 299.47 260.56 294.61 259.97 290.83 260.35
  A 1.03 1.02 87.5 0 0 289.91 261.36
  L 289.73 271.36
  A 0.74 0.73 83.3 0 1 289.18 272.06
  L 285.75 272.90
  A 0.78 0.75 7.2 0 0 285.27 273.26
  Q 284.34 274.87 282.78 275.84
  Q 282.42 276.06 282.00 275.97
  L 275.92 274.66
  Q 274.14 274.28 274.06 276.10
  L 273.70 284.09
  A 1.55 1.54 -22.8 0 1 273.32 285.02
  L 267.87 291.10
  A 2.55 2.54 -73.6 0 1 266.35 291.93
  L 255.46 293.63
  Q 254.36 293.80 254.32 294.91
  Q 254.14 300.46 251.57 303.86
  C 249.76 306.27 245.78 307.79 243.09 309.89
  Z"
/>
<path fill="#52887b" d="
  M 723.33 123.03
  C 722.19 122.42 720.86 122.16 719.59 121.72
  A 0.59 0.59 0.0 0 1 719.67 120.59
  Q 736.94 117.12 753.42 110.84
  A 0.47 0.46 79.4 0 1 754.05 111.28
  Q 754.02 170.10 753.86 228.99
  Q 753.83 241.26 764.86 245.66
  Q 766.04 246.13 764.77 246.13
  L 719.96 246.21
  Q 719.56 246.21 719.90 246.00
  C 721.86 244.82 724.34 243.81 725.83 242.29
  Q 731.17 236.85 731.16 227.87
  Q 731.13 183.69 731.08 139.50
  C 731.07 132.77 729.59 126.40 723.33 123.03
  Z"
/>
<path fill="#52887b" d="
  M 640.93 207.02
  C 649.20 204.90 652.95 198.04 652.95 189.75
  Q 652.97 164.63 652.95 139.50
  C 652.95 133.45 651.63 127.25 646.33 123.67
  C 644.78 122.62 642.61 122.18 640.65 121.42
  A 0.31 0.31 0.0 0 1 640.70 120.83
  Q 658.46 117.22 675.46 110.94
  A 0.60 0.59 79.8 0 1 676.26 111.50
  Q 676.23 150.49 676.11 189.01
  Q 676.06 203.75 690.07 207.03
  A 0.27 0.27 0.0 0 1 690.01 207.56
  L 640.99 207.51
  A 0.25 0.25 0.0 0 1 640.93 207.02
  Z"
/>
<path fill="#52887b" d="
  M 718.09 119.58
  Q 712.12 133.60 707.17 148.21
  A 0.39 0.39 0.0 0 1 706.41 148.12
  C 705.88 140.72 699.38 123.72 688.98 127.52
  C 685.86 128.66 684.02 132.12 682.77 135.04
  A 0.12 0.12 0.0 0 1 682.54 134.97
  C 684.36 126.25 689.83 114.96 698.96 111.92
  C 705.66 109.69 713.25 112.01 718.76 116.34
  A 0.80 0.79 -61.4 0 1 719.02 117.23
  Q 718.68 118.20 718.09 119.58
  Z"
/>
<path fill="#52887b" d="
  M 894.04 208.27
  Q 901.13 204.68 904.39 199.13
  C 914.32 182.23 914.46 163.03 911.20 143.26
  Q 909.20 131.17 902.56 120.89
  C 899.15 115.60 896.66 114.32 892.00 111.79
  Q 891.25 111.38 892.10 111.43
  C 916.07 112.84 932.72 125.83 937.54 149.25
  C 942.70 174.26 930.19 199.01 905.27 206.52
  C 901.89 207.54 897.76 207.75 894.12 208.51
  Q 893.18 208.70 894.04 208.27
  Z"
/>
<path fill="#52887b" d="
  M 1055.01 111.46
  C 1077.71 113.38 1090.62 131.83 1091.09 154.16
  Q 1091.10 154.53 1090.72 154.54
  L 1036.99 155.09
  Q 1036.61 155.10 1036.86 154.81
  Q 1037.03 154.61 1037.49 154.58
  C 1045.37 154.01 1055.59 153.43 1062.05 149.13
  C 1069.37 144.26 1066.68 130.81 1064.31 123.67
  Q 1061.78 116.04 1054.89 111.82
  A 0.20 0.20 0.0 0 1 1055.01 111.46
  Z"
/>
<path fill="#52887b" d="
  M 588.57 202.67
  C 595.00 205.86 603.07 205.97 609.98 203.43
  Q 624.10 198.23 631.34 184.36
  Q 631.54 183.97 631.68 184.38
  Q 631.76 184.61 631.69 184.77
  C 621.47 207.03 595.59 212.30 574.00 205.61
  C 548.12 197.60 538.91 169.77 545.87 145.57
  C 551.13 127.30 563.84 115.17 583.02 111.95
  Q 584.86 111.64 586.29 111.63
  Q 587.12 111.63 586.39 112.03
  C 573.27 119.21 569.69 139.05 569.25 152.73
  C 568.72 169.34 571.51 194.18 588.57 202.67
  Z"
/>
<path fill="#52887b" d="
  M 597.77 111.60
  C 620.70 113.27 633.03 132.86 633.86 153.93
  Q 633.88 154.54 633.27 154.55
  L 579.80 155.08
  Q 579.54 155.08 579.70 154.88
  Q 579.79 154.76 579.92 154.62
  Q 579.98 154.55 580.07 154.55
  Q 591.09 154.27 600.76 151.03
  C 613.62 146.73 609.58 128.73 605.25 119.98
  C 603.39 116.21 600.84 114.00 597.65 111.96
  Q 597.00 111.54 597.77 111.60
  Z"
/>
<path fill="#52887b" d="
  M 1034.03 121.79
  C 1024.88 139.12 1024.92 163.47 1030.16 182.02
  C 1039.31 214.46 1075.42 210.20 1088.68 184.47
  Q 1088.83 184.19 1088.97 184.47
  Q 1089.06 184.66 1089.01 184.77
  C 1084.33 195.36 1076.51 201.95 1065.29 205.55
  C 1048.55 210.93 1028.07 208.46 1014.98 196.15
  Q 1002.86 184.74 1001.40 166.24
  C 999.23 138.74 1014.43 114.82 1043.05 111.59
  Q 1044.05 111.48 1043.23 112.07
  C 1039.49 114.74 1036.46 117.18 1034.03 121.79
  Z"
/>
<path fill="#52887b" d="
  M 777.73 118.12
  Q 770.63 117.11 764.65 121.77
  A 0.35 0.35 0.0 0 1 764.09 121.48
  Q 764.11 121.12 764.39 120.93
  Q 764.71 120.71 764.74 120.68
  C 776.61 109.68 794.52 108.86 806.82 118.03
  C 828.15 133.93 827.81 173.33 812.72 193.01
  C 801.25 207.97 780.63 212.29 763.87 203.80
  A 0.18 0.18 0.0 0 1 763.99 203.47
  Q 778.72 207.25 787.69 195.19
  C 797.92 181.45 799.05 161.81 796.67 144.51
  C 795.24 134.10 789.64 119.81 777.73 118.12
  Z"
/>
<path fill="#52887b" d="
  M 868.38 190.59
  C 871.41 198.97 876.25 204.80 884.34 208.13
  Q 885.40 208.57 884.25 208.48
  C 860.96 206.73 844.04 195.76 838.49 172.61
  C 831.48 143.37 848.80 114.18 880.14 111.69
  Q 881.54 111.58 880.27 112.18
  C 864.25 119.77 861.75 146.98 862.52 162.07
  Q 863.26 176.43 868.38 190.59
  Z"
/>
<path fill="#52887b" d="
  M 465.92 197.83
  C 470.48 202.54 475.64 205.42 481.79 207.58
  A 0.25 0.25 0.0 0 1 481.66 208.07
  C 469.91 205.92 458.03 201.53 446.99 207.88
  Q 446.02 208.44 446.19 207.33
  Q 446.75 203.59 446.62 199.25
  Q 446.00 178.93 442.59 158.56
  A 0.23 0.23 0.0 0 1 443.04 158.44
  C 448.32 172.36 455.40 186.98 465.92 197.83
  Z"
/>
<path fill="#52887b" d="
  M 854.90 351.16
  L 860.22 352.82
  A 1.82 1.82 0.0 0 1 859.68 356.37
  L 839.16 356.39
  A 0.68 0.67 -87.3 0 1 838.49 355.65
  L 838.72 353.34
  A 0.71 0.71 0.0 0 1 839.34 352.70
  C 846.16 351.89 845.34 347.25 845.35 341.18
  Q 845.39 321.84 845.38 302.51
  C 845.37 297.81 842.58 297.43 838.98 296.11
  A 1.60 1.60 0.0 0 1 839.26 293.03
  Q 846.44 291.85 852.75 288.42
  A 0.91 0.91 0.0 0 1 854.10 289.22
  L 853.99 349.91
  A 1.31 1.31 0.0 0 0 854.90 351.16
  Z"
/>
<path fill="#52887b" d="
  M 812.77 335.08
  L 789.55 335.11
  A 1.32 1.31 10.3 0 0 788.32 335.96
  L 783.22 349.66
  Q 782.67 351.13 784.20 351.47
  L 790.44 352.84
  A 1.79 1.78 51.2 0 1 790.06 356.37
  L 770.06 356.39
  A 0.83 0.83 0.0 0 1 769.23 355.47
  L 769.43 353.69
  Q 769.50 353.02 770.15 352.83
  L 774.73 351.48
  A 2.05 2.05 0.0 0 0 776.07 350.26
  L 796.77 298.24
  A 1.07 1.06 15.4 0 0 795.94 296.79
  Q 794.34 296.53 793.24 295.42
  A 0.75 0.75 0.0 0 1 793.57 294.17
  L 804.03 291.34
  A 0.88 0.88 0.0 0 1 805.07 291.84
  Q 817.36 320.26 828.91 349.28
  C 829.93 351.85 833.07 352.09 835.34 352.87
  Q 835.90 353.06 835.93 353.64
  L 836.04 355.67
  Q 836.09 356.43 835.33 356.43
  L 812.05 356.32
  A 1.01 1.00 5.0 0 1 811.06 355.14
  L 811.30 353.69
  Q 811.41 353.10 811.98 352.93
  C 814.55 352.19 819.57 351.57 818.22 347.65
  Q 816.09 341.50 813.50 335.56
  Q 813.29 335.08 812.77 335.08
  Z
  M 790.60 329.67
  A 0.53 0.53 0.0 0 0 791.10 330.38
  L 810.68 330.11
  A 0.53 0.53 0.0 0 0 811.16 329.39
  L 801.01 303.52
  A 0.53 0.53 0.0 0 0 800.02 303.53
  L 790.60 329.67
  Z"
/>
<path fill="#52887b" d="
  M 459.26 321.21
  L 487.68 321.22
  A 1.15 1.14 90.0 0 0 488.82 320.07
  L 488.78 299.44
  Q 488.78 298.83 488.24 298.57
  C 485.80 297.38 481.88 297.74 481.24 294.51
  A 1.27 1.27 0.0 0 1 482.49 293.00
  L 504.73 293.02
  Q 505.47 293.02 505.35 293.76
  L 504.96 296.22
  A 0.82 0.82 0.0 0 1 504.20 296.91
  Q 497.59 297.35 497.56 303.87
  Q 497.45 326.41 497.52 349.77
  A 1.37 1.36 7.9 0 0 498.52 351.08
  L 505.00 352.86
  A 1.78 1.78 0.0 0 1 504.52 356.36
  L 482.53 356.36
  A 1.66 1.66 0.0 0 1 481.98 353.14
  C 486.64 351.51 488.50 350.91 488.66 345.37
  Q 488.92 336.03 488.78 326.92
  A 0.82 0.81 0.0 0 0 487.97 326.12
  L 459.07 326.07
  A 0.61 0.61 0.0 0 0 458.46 326.68
  L 458.50 349.65
  A 1.47 1.44 8.3 0 0 459.55 351.04
  L 466.07 352.95
  A 1.75 1.75 0.0 0 1 465.58 356.37
  L 443.29 356.38
  Q 442.76 356.38 442.57 355.87
  C 441.83 353.86 442.98 352.89 444.88 352.40
  C 450.23 351.02 449.70 346.99 449.73 341.74
  Q 449.87 320.49 449.75 299.24
  A 0.81 0.81 0.0 0 0 449.24 298.50
  C 446.93 297.61 440.98 297.31 442.71 293.38
  Q 442.88 292.98 443.31 292.99
  L 464.91 293.04
  A 1.74 1.74 0.0 0 1 465.48 296.43
  C 462.66 297.41 459.21 298.22 458.84 301.87
  Q 457.94 310.54 458.70 320.69
  Q 458.74 321.21 459.26 321.21
  Z"
/>
<path fill="#52887b" d="
  M 618.39 319.51
  L 613.15 319.61
  A 0.59 0.59 0.0 0 1 612.55 319.02
  L 612.58 315.97
  Q 612.58 315.39 613.15 315.27
  C 619.74 313.87 620.76 309.72 622.68 304.08
  Q 622.86 303.54 623.43 303.53
  L 627.33 303.40
  A 0.71 0.71 0.0 0 1 628.07 304.14
  L 627.75 312.97
  A 1.22 1.22 0.0 0 0 628.97 314.23
  L 640.42 314.31
  A 0.59 0.59 0.0 0 1 641.01 314.90
  L 641.02 318.87
  A 0.64 0.64 0.0 0 1 640.38 319.51
  L 628.47 319.60
  A 0.76 0.76 0.0 0 0 627.71 320.36
  Q 627.68 333.04 627.66 346.01
  C 627.65 353.14 638.12 349.38 641.56 347.86
  A 0.69 0.69 0.0 0 1 642.50 348.30
  L 643.23 350.74
  Q 643.42 351.39 642.87 351.76
  C 637.87 355.17 625.08 361.05 620.71 354.62
  Q 619.33 352.59 619.26 347.67
  Q 619.08 333.92 619.12 320.23
  A 0.72 0.72 0.0 0 0 618.39 319.51
  Z"
/>
<path fill="#52887b" d="
  M 881.02 319.44
  C 884.40 316.84 888.56 314.02 892.75 313.54
  C 917.32 310.71 920.09 363.96 880.94 356.45
  A 0.79 0.79 0.0 0 0 880.00 357.23
  L 880.03 370.02
  A 1.03 1.03 0.0 0 0 880.76 370.99
  Q 884.37 372.08 888.08 372.66
  A 2.04 2.04 0.0 0 1 887.75 376.71
  L 867.09 376.62
  A 1.05 1.04 -82.7 0 1 866.08 375.31
  L 866.39 374.10
  Q 866.53 373.57 867.00 373.29
  L 870.41 371.29
  A 1.15 1.13 -10.8 0 0 870.95 370.51
  Q 871.43 367.83 871.45 363.25
  Q 871.52 346.36 871.44 329.47
  C 871.42 324.99 871.75 320.57 866.44 320.44
  A 1.82 1.81 40.6 0 1 866.16 316.84
  Q 872.85 315.63 878.81 312.57
  A 0.97 0.97 0.0 0 1 880.22 313.44
  L 880.17 319.02
  A 0.53 0.52 71.2 0 0 881.02 319.44
  Z
  M 901.87 335.13
  C 901.67 330.43 899.85 322.82 895.47 320.52
  C 891.70 318.55 884.57 321.75 880.44 324.13
  Q 880.04 324.36 880.04 324.83
  L 880.02 348.24
  Q 880.02 349.45 881.15 349.91
  C 895.37 355.71 902.51 349.96 901.87 335.13
  Z"
/>
<path fill="#52887b" d="
  M 539.11 352.02
  A 0.61 0.61 0.0 0 0 538.07 351.59
  Q 530.54 359.24 520.50 356.23
  Q 514.61 354.47 513.57 347.49
  Q 512.47 340.07 518.97 336.75
  Q 526.03 333.15 537.85 330.94
  A 0.74 0.72 87.5 0 0 538.44 330.28
  Q 538.88 324.81 538.32 321.77
  C 537.94 319.72 536.29 319.20 534.32 318.58
  Q 529.89 317.19 526.34 319.61
  C 524.09 321.14 523.16 324.41 522.29 326.94
  Q 522.12 327.44 521.60 327.43
  L 516.35 327.33
  Q 515.63 327.32 515.72 326.60
  L 516.62 319.32
  A 0.88 0.87 83.0 0 1 517.15 318.63
  C 524.18 315.68 530.96 312.63 537.62 313.50
  C 543.94 314.33 547.09 317.61 547.16 324.02
  Q 547.31 336.69 547.24 349.24
  A 1.84 1.84 0.0 0 0 548.82 351.07
  L 552.72 351.64
  Q 553.18 351.71 553.40 352.12
  Q 554.52 354.21 552.74 355.21
  C 549.50 357.03 539.05 359.58 539.11 352.02
  Z
  M 522.92 342.20
  C 519.53 350.40 529.70 352.80 535.13 349.67
  C 536.99 348.59 538.58 347.81 538.53 345.76
  Q 538.42 340.99 538.61 335.86
  A 0.72 0.71 -4.2 0 0 537.76 335.13
  C 533.49 335.93 524.85 337.55 522.92 342.20
  Z"
/>
<path fill="#52887b" d="
  M 592.35 351.76
  A 0.55 0.55 0.0 0 0 591.47 351.42
  C 585.66 355.93 570.96 361.77 566.07 353.17
  Q 564.67 350.70 564.67 345.50
  Q 564.65 334.50 564.54 323.50
  C 564.50 320.18 563.30 318.48 560.25 317.70
  Q 559.28 317.46 558.71 316.88
  A 1.57 1.57 0.0 0 1 559.74 314.22
  L 573.00 313.40
  Q 573.51 313.37 573.49 313.88
  Q 572.89 330.44 573.37 347.00
  C 573.56 353.69 588.36 349.13 591.46 347.52
  A 0.90 0.89 77.4 0 0 591.94 346.76
  Q 592.23 335.23 591.98 323.80
  C 591.89 319.69 588.96 317.75 585.19 317.49
  A 0.82 0.82 0.0 0 1 584.44 316.80
  L 584.19 315.16
  Q 584.06 314.29 584.93 314.24
  L 600.30 313.38
  Q 600.87 313.35 600.86 313.92
  Q 600.72 324.56 600.80 345.99
  Q 600.82 351.45 606.17 351.10
  Q 606.79 351.06 606.89 351.67
  L 607.17 353.28
  Q 607.33 354.19 606.41 354.32
  Q 600.74 355.11 595.52 357.50
  A 1.69 1.69 0.0 0 1 593.16 356.26
  L 592.35 351.76
  Z"
/>
<path fill="#52887b" d="
  M 656.20 335.38
  C 655.83 344.06 661.51 352.48 671.24 350.49
  Q 675.81 349.55 681.45 347.42
  Q 682.01 347.21 682.18 347.79
  L 682.84 350.09
  A 0.95 0.94 66.7 0 1 682.42 351.16
  Q 678.06 353.78 673.38 355.66
  Q 668.16 357.76 663.90 357.31
  C 650.41 355.88 645.63 342.52 648.33 330.88
  Q 652.36 313.43 669.37 313.40
  C 681.71 313.38 684.86 324.19 683.24 334.43
  Q 683.18 334.82 682.78 334.82
  L 656.82 334.78
  Q 656.22 334.78 656.20 335.38
  Z
  M 657.20 330.90
  L 674.51 329.66
  A 0.37 0.37 0.0 0 0 674.86 329.27
  L 674.72 327.38
  A 10.24 8.33 85.9 0 0 665.68 317.76
  L 664.24 317.87
  A 10.24 8.33 85.9 0 0 656.67 328.68
  L 656.80 330.56
  A 0.37 0.37 0.0 0 0 657.20 330.90
  Z"
/>
<path fill="#52887b" d="
  M 927.19 335.30
  C 926.44 340.96 928.62 346.90 933.83 349.48
  C 939.43 352.25 945.90 349.58 951.16 347.81
  A 1.93 1.92 -70.6 0 1 952.81 351.26
  C 948.30 354.14 940.96 357.88 935.76 357.49
  C 922.67 356.53 916.92 345.57 918.51 333.54
  Q 920.61 317.57 934.33 314.07
  C 949.25 310.26 955.66 320.47 953.92 334.25
  Q 953.85 334.81 953.29 334.81
  L 927.76 334.81
  Q 927.26 334.81 927.19 335.30
  Z
  M 944.55 328.78
  C 948.11 314.55 927.11 313.27 926.96 330.00
  A 0.76 0.75 88.9 0 0 927.75 330.77
  Q 934.01 330.49 940.24 330.16
  Q 942.43 330.04 943.93 329.48
  Q 944.42 329.30 944.55 328.78
  Z"
/>
<path fill="#52887b" d="
  M 716.27 349.61
  C 719.60 344.78 714.00 340.51 709.12 339.28
  Q 702.21 337.54 697.72 335.07
  C 692.24 332.05 692.69 323.60 695.77 319.25
  C 701.19 311.59 714.08 313.07 722.17 314.37
  A 0.60 0.60 0.0 0 1 722.67 315.02
  L 721.80 324.68
  A 0.74 0.72 -87.8 0 1 721.09 325.35
  L 718.38 325.38
  Q 717.84 325.38 717.61 324.89
  L 715.50 320.36
  A 1.23 1.23 0.0 0 0 714.90 319.76
  Q 709.99 317.52 704.60 317.81
  A 1.49 1.44 23.4 0 0 703.80 318.11
  C 698.76 322.12 700.79 328.07 706.53 329.91
  Q 711.86 331.61 717.16 333.40
  C 721.37 334.82 724.11 337.56 724.43 342.21
  C 725.64 359.71 703.65 358.60 693.40 353.71
  A 0.84 0.82 17.4 0 1 692.93 352.84
  L 694.22 343.51
  Q 694.30 342.91 694.91 342.93
  L 698.00 343.05
  A 0.82 0.81 82.5 0 1 698.75 343.63
  C 700.17 348.17 700.33 349.93 705.50 351.01
  C 709.07 351.75 713.91 353.03 716.27 349.61
  Z"
/>
<path fill="#52887b" d="
  M 974.61 350.68
  C 977.78 351.74 985.60 353.03 987.13 349.52
  C 989.02 345.16 985.85 341.15 981.70 339.88
  C 972.06 336.92 960.55 334.75 964.96 322.19
  C 968.88 311.00 984.39 313.15 992.69 314.25
  A 0.72 0.71 6.6 0 1 993.31 315.03
  L 992.30 324.84
  Q 992.23 325.51 991.56 325.47
  L 988.66 325.27
  A 0.77 0.74 81.6 0 1 988.00 324.76
  C 987.28 322.64 986.59 320.46 984.41 319.44
  C 981.26 317.96 974.03 315.95 972.25 320.56
  C 966.38 335.79 998.49 326.54 994.95 345.91
  C 992.42 359.74 973.60 358.28 964.21 353.74
  A 1.11 1.10 -73.2 0 1 963.60 352.59
  L 964.86 343.54
  Q 964.95 342.92 965.58 342.96
  L 968.92 343.17
  A 0.83 0.82 89.6 0 1 969.69 343.94
  C 969.90 347.45 971.15 349.53 974.61 350.68
  Z"
/>
<rect fill="#52887b" x="-13.24" y="-3.24" transform="translate(749.73,330.72) rotate(0.1)" width="26.48" height="6.48" rx="0.76"/>
</svg>
